<?xml version="1.0" encoding="UTF-8" standalone="no"?>
<!DOCTYPE svg PUBLIC "-//W3C//DTD SVG 1.1//EN"
 "http://www.w3.org/Graphics/SVG/1.1/DTD/svg11.dtd">
<!-- Generated by graphviz version 2.38.0 (20140413.2041)
 -->
<!-- Title: G Pages: 1 -->
<svg width="550pt" height="106pt"
 viewBox="7.20 7.20 543.20 99.20" xmlns="http://www.w3.org/2000/svg" xmlns:xlink="http://www.w3.org/1999/xlink">
<g id="graph0" class="graph" transform="scale(1 1) rotate(0) translate(11.2 95.2)">
<title>G</title>
<polygon fill="white" stroke="none" points="-4,4 -4,-88 532,-88 532,4 -4,4"/>
<!-- 0 -->
<g id="node1" class="node"><title>0</title>
<polygon fill="none" stroke="black" points="54,-36 0,-36 0,-0 54,-0 54,-36"/>
<text text-anchor="middle" x="27" y="-14.3" font-family="Times,serif" font-size="14.00">HULK</text>
</g>
<!-- 1 -->
<g id="node2" class="node"><title>1</title>
<polygon fill="none" stroke="black" points="208,-36 124,-36 124,-0 208,-0 208,-36"/>
<text text-anchor="middle" x="166" y="-14.3" font-family="Times,serif" font-size="14.00">AST&#45;HULK</text>
</g>
<!-- 0&#45;&gt;1 -->
<g id="edge1" class="edge"><title>0&#45;&gt;1</title>
<path fill="none" stroke="black" d="M54.0911,-18C70.9604,-18 93.487,-18 113.831,-18"/>
<polygon fill="black" stroke="black" points="113.917,-21.5001 123.917,-18 113.917,-14.5001 113.917,-21.5001"/>
<text text-anchor="middle" x="89" y="-36.8" font-family="Times,serif" font-size="14.00">Parser</text>
<text text-anchor="middle" x="89" y="-21.8" font-family="Times,serif" font-size="14.00">Lexer</text>
</g>
<!-- 1&#45;&gt;1 -->
<g id="edge2" class="edge"><title>1&#45;&gt;1</title>
<path fill="none" stroke="black" d="M152.251,-36.1527C150.136,-45.5391 154.719,-54 166,-54 172.875,-54 177.262,-50.8581 179.162,-46.2796"/>
<polygon fill="black" stroke="black" points="182.664,-46.3386 179.749,-36.1527 175.676,-45.9332 182.664,-46.3386"/>
<text text-anchor="middle" x="166" y="-72.8" font-family="Times,serif" font-size="14.00">Sem치ntica</text>
<text text-anchor="middle" x="166" y="-57.8" font-family="Times,serif" font-size="14.00">Inferencia</text>
</g>
<!-- 2 -->
<g id="node3" class="node"><title>2</title>
<polygon fill="none" stroke="black" points="375,-36 307,-36 307,-0 375,-0 375,-36"/>
<text text-anchor="middle" x="341" y="-14.3" font-family="Times,serif" font-size="14.00">AST&#45;CIL</text>
</g>
<!-- 1&#45;&gt;2 -->
<g id="edge3" class="edge"><title>1&#45;&gt;2</title>
<path fill="none" stroke="black" d="M208.438,-18C235.089,-18 269.657,-18 296.671,-18"/>
<polygon fill="black" stroke="black" points="296.994,-21.5001 306.994,-18 296.994,-14.5001 296.994,-21.5001"/>
<text text-anchor="middle" x="257.5" y="-21.8" font-family="Times,serif" font-size="14.00">Generaci칩n</text>
</g>
<!-- 2&#45;&gt;2 -->
<g id="edge4" class="edge"><title>2&#45;&gt;2</title>
<path fill="none" stroke="black" d="M326.166,-36.1527C323.883,-45.5391 328.828,-54 341,-54 348.417,-54 353.151,-50.8581 355.201,-46.2796"/>
<polygon fill="black" stroke="black" points="358.703,-46.3518 355.834,-36.1527 351.717,-45.9145 358.703,-46.3518"/>
<text text-anchor="middle" x="341" y="-57.8" font-family="Times,serif" font-size="14.00">Optimizaci칩n</text>
</g>
<!-- 3 -->
<g id="node4" class="node"><title>3</title>
<polygon fill="none" stroke="black" points="528,-36 474,-36 474,-0 528,-0 528,-36"/>
<text text-anchor="middle" x="501" y="-14.3" font-family="Times,serif" font-size="14.00">MIPS</text>
</g>
<!-- 2&#45;&gt;3 -->
<g id="edge5" class="edge"><title>2&#45;&gt;3</title>
<path fill="none" stroke="black" d="M375.122,-18C401.005,-18 436.942,-18 463.622,-18"/>
<polygon fill="black" stroke="black" points="463.713,-21.5001 473.713,-18 463.713,-14.5001 463.713,-21.5001"/>
<text text-anchor="middle" x="424.5" y="-21.8" font-family="Times,serif" font-size="14.00">Generaci칩n</text>
</g>
</g>
</svg>
